<svg width="15" height="27" viewBox="0 0 15 27" fill="none" xmlns="http://www.w3.org/2000/svg">
<path d="M12.2374 0.844543C12.9859 0.844543 13.6238 1.13124 14.1511 1.70464C14.6784 2.27804 14.942 2.95896 14.942 3.74738V23.2072C14.942 23.9956 14.6784 24.6765 14.1511 25.2499C13.6238 25.8233 12.9859 26.11 12.2374 26.11H3.51134C2.76291 26.11 2.12503 25.8233 1.59773 25.2499C1.07042 24.6765 0.806763 23.9956 0.806763 23.2072V3.74738C0.806763 2.95896 1.07042 2.27804 1.59773 1.70464C2.12503 1.13124 2.76291 0.844543 3.51134 0.844543H12.2374ZM7.8744 24.9274C8.33366 24.9274 8.72489 24.7661 9.04808 24.4436C9.37127 24.121 9.53287 23.7178 9.53287 23.234C9.53287 22.7502 9.37127 22.3381 9.04808 21.9976C8.72489 21.6572 8.33366 21.487 7.8744 21.487C7.41513 21.487 7.0324 21.6572 6.72622 21.9976C6.42004 22.3381 6.26696 22.7502 6.26696 23.234C6.26696 23.7178 6.42004 24.121 6.72622 24.4436C7.0324 24.7661 7.41513 24.9274 7.8744 24.9274ZM12.7988 20.3581V4.28495H3.00105V20.3581H12.7988Z" fill="#3DAB55"/>
</svg>
