<svg width="28" height="32" viewBox="0 0 28 32" fill="none" xmlns="http://www.w3.org/2000/svg">
<g clip-path="url(#clip0_2:67)">
<path d="M24.2045 0.059082H3.65697C2.11007 0.059082 0.855042 1.38527 0.855042 3.01988V28.6801C0.855042 30.3147 2.11007 31.6409 3.65697 31.6409H24.2045C25.7514 31.6409 27.0064 30.3147 27.0064 28.6801V3.01988C27.0064 1.38527 25.7514 0.059082 24.2045 0.059082ZM13.9307 29.667C12.8975 29.667 12.0628 28.785 12.0628 27.6932C12.0628 26.6014 12.8975 25.7193 13.9307 25.7193C14.9639 25.7193 15.7987 26.6014 15.7987 27.6932C15.7987 28.785 14.9639 29.667 13.9307 29.667ZM24.2045 23.0052C24.2045 23.4124 23.8893 23.7454 23.504 23.7454H4.35746C3.97219 23.7454 3.65697 23.4124 3.65697 23.0052V3.76008C3.65697 3.35297 3.97219 3.01988 4.35746 3.01988H23.504C23.8893 3.01988 24.2045 3.35297 24.2045 3.76008V23.0052Z" fill="#3DAB55"/>
</g>
<defs>
<clipPath id="clip0_2:67">
<rect width="26.1514" height="31.5818" fill="white" transform="translate(0.855042 0.059082)"/>
</clipPath>
</defs>
</svg>
