<svg width="31" height="24" viewBox="0 0 31 24" fill="none" xmlns="http://www.w3.org/2000/svg">
<path d="M0.367188 1.12119V22.587C0.367188 22.8814 0.477411 23.1638 0.673611 23.3721C0.869811 23.5803 1.13591 23.6973 1.41338 23.6973H29.0794C29.3569 23.6973 29.623 23.5803 29.8192 23.3721C30.0154 23.1638 30.1256 22.8814 30.1256 22.587V1.12119C30.1256 0.826724 30.0154 0.544315 29.8192 0.336094C29.623 0.127872 29.3569 0.0108948 29.0794 0.0108948H1.41338C1.13591 0.0108948 0.869811 0.127872 0.673611 0.336094C0.477411 0.544315 0.367188 0.826724 0.367188 1.12119H0.367188ZM26.4058 21.4767H4.08699V2.23149H26.4058V21.4767Z" fill="#3DAB55"/>
<path d="M19.9702 5.95273H21.5449V19.3863H11.3097C10.0028 19.3863 8.94775 18.2612 8.94775 16.8675V6.79232C8.94775 5.39859 10.0028 4.27353 11.3097 4.27353H18.3956V16.0279H11.3097C10.8767 16.0279 10.5224 16.4057 10.5224 16.8675C10.5224 17.3293 10.8767 17.7071 11.3097 17.7071H19.9702V5.95273Z" fill="#3DAB55"/>
</svg>
