<svg width="25" height="36" viewBox="0 0 25 36" fill="none" xmlns="http://www.w3.org/2000/svg">
<path d="M1.83087 10.1745C1.83087 9.33692 2.1444 8.53363 2.70248 7.94135C3.26056 7.34908 4.01747 7.01634 4.80672 7.01634H19.6859C20.4752 7.01634 21.2321 7.34908 21.7902 7.94135C22.3483 8.53363 22.6618 9.33692 22.6618 10.1745V25.9654C22.6618 26.803 22.3483 27.6063 21.7902 28.1986C21.2321 28.7909 20.4752 29.1236 19.6859 29.1236H4.80672C4.01747 29.1236 3.26056 28.7909 2.70248 28.1986C2.1444 27.6063 1.83087 26.803 1.83087 25.9654V10.1745Z" stroke="#3DAB55" stroke-width="2.97585" stroke-linecap="round" stroke-linejoin="round"/>
<path d="M7.78259 33.8609H16.7101" stroke="#3DAB55" stroke-width="2.97585" stroke-linecap="round" stroke-linejoin="round"/>
<path d="M7.78259 2.27905H16.7101" stroke="#3DAB55" stroke-width="2.97585" stroke-linecap="round" stroke-linejoin="round"/>
</svg>
