<svg width="29" height="31" viewBox="0 0 29 31" fill="none" xmlns="http://www.w3.org/2000/svg">
<path d="M25.6771 5.65454C26.4255 5.65454 27.0634 5.94124 27.5907 6.51464C28.118 7.08804 28.3817 7.76895 28.3817 8.55738V28.0172C28.3817 28.8056 28.118 29.4865 27.5907 30.0599C27.0634 30.6333 26.4255 30.92 25.6771 30.92H16.951C16.2025 30.92 15.5647 30.6333 15.0374 30.0599C14.5101 29.4865 14.2464 28.8056 14.2464 28.0172V8.55738C14.2464 7.76895 14.5101 7.08804 15.0374 6.51464C15.5647 5.94124 16.2025 5.65454 16.951 5.65454H25.6771ZM21.314 29.7374C21.7733 29.7374 22.1645 29.5761 22.4877 29.2535C22.8109 28.931 22.9725 28.5278 22.9725 28.044C22.9725 27.5602 22.8109 27.1481 22.4877 26.8076C22.1645 26.4672 21.7733 26.297 21.314 26.297C20.8548 26.297 20.472 26.4672 20.1659 26.8076C19.8597 27.1481 19.7066 27.5602 19.7066 28.044C19.7066 28.5278 19.8597 28.931 20.1659 29.2535C20.472 29.5761 20.8548 29.7374 21.314 29.7374ZM26.2384 25.1681V9.09494H16.4407V25.1681H26.2384Z" fill="#3DAB55"/>
<path d="M0.855042 11.7885C0.855042 10.145 2.18737 8.8127 3.83089 8.8127H9.78258C11.4261 8.8127 12.7584 10.145 12.7584 11.7885V19.9575C12.7584 20.7793 12.0923 21.4454 11.2705 21.4454H2.34296C1.52121 21.4454 0.855042 20.7793 0.855042 19.9575V11.7885Z" fill="#3DAB55"/>
<rect x="2.34302" y="19.8663" width="2.97585" height="7.89545" rx="1.48792" fill="#3DAB55"/>
<rect x="8.29468" y="19.8663" width="2.97585" height="7.89545" rx="1.48792" fill="#3DAB55"/>
<rect x="5.31885" y="0.917236" width="2.97585" height="9.47455" rx="1.48792" fill="#3DAB55"/>
<rect x="5.31885" y="4.07544" width="3.15818" height="17.8551" rx="1.48792" transform="rotate(-90 5.31885 4.07544)" fill="#3DAB55"/>
</svg>
