<svg width="34" height="31" viewBox="0 0 34 31" fill="none" xmlns="http://www.w3.org/2000/svg">
<g clip-path="url(#clip0_2:114)">
<path d="M31.2303 4.57336H14.2562C12.9784 4.57336 11.9416 5.66891 11.9416 7.01924V28.2168C11.9416 29.5671 12.9784 30.6627 14.2562 30.6627H31.2303C32.5081 30.6627 33.5449 29.5671 33.5449 28.2168V7.01924C33.5449 5.66891 32.5081 4.57336 31.2303 4.57336ZM22.7432 29.0321C21.8897 29.0321 21.2001 28.3034 21.2001 27.4015C21.2001 26.4996 21.8897 25.7709 22.7432 25.7709C23.5968 25.7709 24.2863 26.4996 24.2863 27.4015C24.2863 28.3034 23.5968 29.0321 22.7432 29.0321ZM31.2303 23.5289C31.2303 23.8652 30.9699 24.1404 30.6516 24.1404H14.8349C14.5166 24.1404 14.2562 23.8652 14.2562 23.5289V7.63071C14.2562 7.2944 14.5166 7.01924 14.8349 7.01924H30.6516C30.9699 7.01924 31.2303 7.2944 31.2303 7.63071V23.5289Z" fill="#3DAB55"/>
</g>
<path d="M0.879272 10.1582C0.879272 8.51465 2.2116 7.18232 3.85512 7.18232H7.73665C9.38017 7.18232 10.7125 8.51465 10.7125 10.1582V16.1301C10.7125 16.9519 10.0463 17.6181 9.22458 17.6181H2.3672C1.54544 17.6181 0.879272 16.9519 0.879272 16.1301V10.1582Z" fill="#3DAB55"/>
<rect x="2.10846" y="16.3136" width="2.45831" height="6.52233" rx="1.22915" fill="#3DAB55"/>
<rect x="7.02496" y="16.3136" width="2.45831" height="6.52233" rx="1.22915" fill="#3DAB55"/>
<rect x="4.56671" y="0.659973" width="2.45831" height="7.8268" rx="1.22915" fill="#3DAB55"/>
<rect x="4.56671" y="3.2689" width="2.60893" height="18.4373" rx="1.30447" transform="rotate(-90 4.56671 3.2689)" fill="#3DAB55"/>
<defs>
<clipPath id="clip0_2:114">
<rect width="21.6033" height="26.0893" fill="white" transform="translate(11.9416 4.57336)"/>
</clipPath>
</defs>
</svg>
