<svg width="43" height="31" viewBox="0 0 43 31" fill="none" xmlns="http://www.w3.org/2000/svg">
<path d="M12.8309 8.19936V29.6651C12.8309 29.9596 12.9411 30.242 13.1373 30.4502C13.3335 30.6585 13.5996 30.7754 13.8771 30.7754H41.5431C41.8206 30.7754 42.0867 30.6585 42.2829 30.4502C42.4791 30.242 42.5893 29.9596 42.5893 29.6651V8.19936C42.5893 7.90489 42.4791 7.62248 42.2829 7.41426C42.0867 7.20604 41.8206 7.08906 41.5431 7.08906H13.8771C13.5996 7.08906 13.3335 7.20604 13.1373 7.41426C12.9411 7.62248 12.8309 7.90489 12.8309 8.19936V8.19936ZM38.8695 28.5548H16.5507V9.30966H38.8695V28.5548Z" fill="#3DAB55"/>
<path d="M32.4341 13.0308H34.0087V26.4644H23.7735C22.4666 26.4644 21.4116 25.3394 21.4116 23.9456V13.8704C21.4116 12.4767 22.4666 11.3516 23.7735 11.3516H30.8594V23.106H23.7735C23.3405 23.106 22.9862 23.4838 22.9862 23.9456C22.9862 24.4074 23.3405 24.7852 23.7735 24.7852H32.4341V13.0308Z" fill="#3DAB55"/>
<path d="M0.927551 10.2709C0.927551 8.62735 2.25988 7.29502 3.9034 7.29502H7.78493C9.42845 7.29502 10.7608 8.62735 10.7608 10.2709V16.2428C10.7608 17.0646 10.0946 17.7308 9.27286 17.7308H2.41547C1.59372 17.7308 0.927551 17.0646 0.927551 16.2428V10.2709Z" fill="#3DAB55"/>
<rect x="2.15674" y="16.4263" width="2.45831" height="6.52233" rx="1.22915" fill="#3DAB55"/>
<rect x="7.0733" y="16.4263" width="2.45831" height="6.52233" rx="1.22915" fill="#3DAB55"/>
<rect x="4.61499" y="0.772696" width="2.45831" height="7.8268" rx="1.22915" fill="#3DAB55"/>
<rect x="4.61499" y="3.38164" width="2.60893" height="18.4373" rx="1.30447" transform="rotate(-90 4.61499 3.38164)" fill="#3DAB55"/>
</svg>
