<svg width="39" height="37" viewBox="0 0 39 37" fill="none" xmlns="http://www.w3.org/2000/svg">
<path d="M35.4177 7.35998C36.1661 7.35998 36.804 7.64668 37.3313 8.22008C37.8586 8.79348 38.1223 9.47439 38.1223 10.2628V29.7226C38.1223 30.511 37.8586 31.1919 37.3313 31.7653C36.804 32.3387 36.1661 32.6254 35.4177 32.6254H26.6916C25.9431 32.6254 25.3053 32.3387 24.778 31.7653C24.2507 31.1919 23.987 30.511 23.987 29.7226V10.2628C23.987 9.47439 24.2507 8.79348 24.778 8.22008C25.3053 7.64668 25.9431 7.35998 26.6916 7.35998H35.4177ZM31.0546 31.4428C31.5139 31.4428 31.9051 31.2815 32.2283 30.959C32.5515 30.6364 32.7131 30.2333 32.7131 29.7495C32.7131 29.2657 32.5515 28.8535 32.2283 28.5131C31.9051 28.1726 31.5139 28.0024 31.0546 28.0024C30.5954 28.0024 30.2126 28.1726 29.9065 28.5131C29.6003 28.8535 29.4472 29.2657 29.4472 29.7495C29.4472 30.2333 29.6003 30.6364 29.9065 30.959C30.2126 31.2815 30.5954 31.4428 31.0546 31.4428ZM35.979 26.8735V10.8004H26.1813V26.8735H35.979Z" fill="#3DAB55"/>
<g clip-path="url(#clip0_2:131)">
<path d="M10.4916 8.77873C10.0854 9.57499 9.86201 10.4617 9.83945 11.3668C9.81689 12.2719 9.99583 13.1699 10.3617 13.9879C10.7276 14.8058 11.2702 15.5206 11.9453 16.0742C12.6204 16.6278 13.409 17.0046 14.2471 17.1739L18.3137 30.8126C18.4038 31.1416 18.555 31.4482 18.7584 31.7144C18.9618 31.9805 19.2133 32.2007 19.4981 32.3622C19.7828 32.5237 20.0952 32.6231 20.4167 32.6546C20.7382 32.686 21.0624 32.649 21.3702 32.5456C21.678 32.4422 21.9632 32.2745 22.2091 32.0523C22.4549 31.8302 22.6564 31.5582 22.8018 31.2522C22.9471 30.9462 23.0333 30.6125 23.0553 30.2707C23.0774 29.9288 23.0348 29.5857 22.93 29.2616L18.91 15.7805C19.6477 15.0704 20.1869 14.1585 20.4686 13.1446C20.7502 12.1308 20.7634 11.0543 20.5067 10.033C20.25 9.01175 19.7333 8.08521 19.0133 7.35497C18.2933 6.62472 17.3977 6.11896 16.4248 5.89313C16.2932 5.8627 16.1565 5.86918 16.028 5.91192C15.8995 5.95465 15.7838 6.03218 15.6921 6.13685C15.6005 6.24152 15.5361 6.36973 15.5054 6.50884C15.4746 6.64795 15.4786 6.79315 15.5168 6.93016L16.8427 11.6643L13.9581 12.5763L12.638 7.87922C12.5992 7.74115 12.527 7.6163 12.4285 7.51717C12.33 7.41805 12.2087 7.34813 12.0767 7.3144C11.9448 7.28068 11.8068 7.28434 11.6765 7.32502C11.5463 7.3657 11.4284 7.44196 11.3347 7.54619C11.0033 7.9159 10.7196 8.33069 10.4911 8.7797L10.4916 8.77873Z" fill="#3DAB55"/>
</g>
<defs>
<clipPath id="clip0_2:131">
<rect width="25.9793" height="25.148" fill="white" transform="matrix(0.454106 -0.890948 0.867258 0.497859 0.439575 23.889)"/>
</clipPath>
</defs>
</svg>
