<svg width="36" height="36" viewBox="0 0 36 36" fill="none" xmlns="http://www.w3.org/2000/svg">
<path d="M17.5714 2.92859C13.7033 2.97792 10.0074 4.53648 7.27193 7.27193C4.53648 10.0074 2.97792 13.7033 2.92859 17.5714C2.94667 19.8249 3.48461 22.0437 4.50052 24.0552C5.51642 26.0667 6.98289 27.8166 8.78573 29.1686V29.2857H8.93216C11.4115 31.1856 14.4479 32.2153 17.5714 32.2153C20.695 32.2153 23.7314 31.1856 26.2107 29.2857H26.3572V29.1686C28.16 27.8166 29.6265 26.0667 30.6424 24.0552C31.6583 22.0437 32.1962 19.8249 32.2143 17.5714C32.165 13.7033 30.6064 10.0074 27.871 7.27193C25.1355 4.53648 21.4396 2.97792 17.5714 2.92859ZM11.8168 27.7189C12.0306 26.74 12.5726 25.8635 13.353 25.235C14.1333 24.6064 15.1051 24.2635 16.1072 24.2632H19.0357C20.0378 24.2635 21.0096 24.6064 21.7899 25.235C22.5703 25.8635 23.1123 26.74 23.3261 27.7189C21.5819 28.7451 19.5951 29.2863 17.5714 29.2863C15.5478 29.2863 13.561 28.7451 11.8168 27.7189ZM25.7861 25.83C25.2291 24.4989 24.2912 23.3621 23.0902 22.5623C21.8892 21.7625 20.4787 21.3354 19.0357 21.3347H16.1072C14.6642 21.3354 13.2537 21.7625 12.0527 22.5623C10.8517 23.3621 9.91378 24.4989 9.3568 25.83C8.25956 24.7508 7.38573 23.466 6.78524 22.049C6.18476 20.6319 5.86939 19.1104 5.85716 17.5714C5.89514 14.4764 7.14151 11.5189 9.33019 9.33019C11.5189 7.14151 14.4764 5.89514 17.5714 5.85716C20.6665 5.89514 23.624 7.14151 25.8127 9.33019C28.0014 11.5189 29.2478 14.4764 29.2857 17.5714C29.2735 19.1104 28.9581 20.6319 28.3576 22.049C27.7572 23.466 26.8833 24.7508 25.7861 25.83Z" fill="black" fill-opacity="0.56"/>
<path d="M17.5715 8.78573C16.7974 8.7677 16.0276 8.90688 15.3089 9.19484C14.5901 9.48281 13.9372 9.91358 13.3897 10.4611C12.8422 11.0086 12.4114 11.6615 12.1234 12.3803C11.8355 13.0991 11.6963 13.8688 11.7143 14.6429C11.6963 15.417 11.8355 16.1867 12.1234 16.9055C12.4114 17.6242 12.8422 18.2771 13.3897 18.8247C13.9372 19.3722 14.5901 19.8029 15.3089 20.0909C16.0276 20.3789 16.7974 20.5181 17.5715 20.5C18.3456 20.5181 19.1153 20.3789 19.8341 20.0909C20.5528 19.8029 21.2057 19.3722 21.7532 18.8247C22.3008 18.2771 22.7315 17.6242 23.0195 16.9055C23.3075 16.1867 23.4466 15.417 23.4286 14.6429C23.4466 13.8688 23.3075 13.0991 23.0195 12.3803C22.7315 11.6615 22.3008 11.0086 21.7532 10.4611C21.2057 9.91358 20.5528 9.48281 19.8341 9.19484C19.1153 8.90688 18.3456 8.7677 17.5715 8.78573ZM17.5715 17.5714C17.1819 17.5903 16.7927 17.5274 16.4288 17.3869C16.065 17.2464 15.7346 17.0313 15.4588 16.7556C15.183 16.4798 14.9679 16.1493 14.8274 15.7855C14.6869 15.4217 14.6241 15.0324 14.6429 14.6429C14.6241 14.2533 14.6869 13.8641 14.8274 13.5003C14.9679 13.1364 15.183 12.806 15.4588 12.5302C15.7346 12.2544 16.065 12.0394 16.4288 11.8988C16.7927 11.7583 17.1819 11.6955 17.5715 11.7143C17.961 11.6955 18.3502 11.7583 18.7141 11.8988C19.0779 12.0394 19.4083 12.2544 19.6841 12.5302C19.9599 12.806 20.175 13.1364 20.3155 13.5003C20.456 13.8641 20.5189 14.2533 20.5 14.6429C20.5189 15.0324 20.456 15.4217 20.3155 15.7855C20.175 16.1493 19.9599 16.4798 19.6841 16.7556C19.4083 17.0313 19.0779 17.2464 18.7141 17.3869C18.3502 17.5274 17.961 17.5903 17.5715 17.5714Z" fill="black" fill-opacity="0.56"/>
</svg>
