<svg width="74" height="74" viewBox="0 0 74 74" fill="none" xmlns="http://www.w3.org/2000/svg">
<path d="M55.5 9.25H18.5C16.0467 9.25 13.694 10.2246 11.9593 11.9593C10.2246 13.694 9.25 16.0467 9.25 18.5V55.5C9.25 57.9533 10.2246 60.306 11.9593 62.0407C13.694 63.7754 16.0467 64.75 18.5 64.75H55.5C57.9533 64.75 60.306 63.7754 62.0407 62.0407C63.7754 60.306 64.75 57.9533 64.75 55.5V18.5C64.75 16.0467 63.7754 13.694 62.0407 11.9593C60.306 10.2246 57.9533 9.25 55.5 9.25ZM45.3558 40.9775C45.6448 41.2641 45.8742 41.6052 46.0307 41.9809C46.1873 42.3566 46.2679 42.7596 46.2679 43.1667C46.2679 43.5737 46.1873 43.9767 46.0307 44.3524C45.8742 44.7282 45.6448 45.0692 45.3558 45.3558C45.0692 45.6448 44.7282 45.8742 44.3524 46.0307C43.9767 46.1873 43.5737 46.2679 43.1667 46.2679C42.7596 46.2679 42.3566 46.1873 41.9809 46.0307C41.6052 45.8742 41.2641 45.6448 40.9775 45.3558L37 41.3475L33.0225 45.3558C32.7359 45.6448 32.3948 45.8742 32.0191 46.0307C31.6434 46.1873 31.2404 46.2679 30.8333 46.2679C30.4263 46.2679 30.0233 46.1873 29.6476 46.0307C29.2718 45.8742 28.9308 45.6448 28.6442 45.3558C28.3552 45.0692 28.1258 44.7282 27.9693 44.3524C27.8127 43.9767 27.7321 43.5737 27.7321 43.1667C27.7321 42.7596 27.8127 42.3566 27.9693 41.9809C28.1258 41.6052 28.3552 41.2641 28.6442 40.9775L32.6525 37L28.6442 33.0225C28.0636 32.4419 27.7374 31.6544 27.7374 30.8333C27.7374 30.0122 28.0636 29.2248 28.6442 28.6442C29.2248 28.0636 30.0122 27.7374 30.8333 27.7374C31.6544 27.7374 32.4419 28.0636 33.0225 28.6442L37 32.6525L40.9775 28.6442C41.5581 28.0636 42.3456 27.7374 43.1667 27.7374C43.9878 27.7374 44.7752 28.0636 45.3558 28.6442C45.9364 29.2248 46.2626 30.0122 46.2626 30.8333C46.2626 31.6544 45.9364 32.4419 45.3558 33.0225L41.3475 37L45.3558 40.9775Z" fill="black" fill-opacity="0.61"/>
</svg>
