<svg width="85" height="77" viewBox="0 0 85 77" fill="none" xmlns="http://www.w3.org/2000/svg">
<path d="M82.349 10.866C78.7891 3.53005 68.5345 -2.47208 56.6062 1.02249C50.9062 2.67571 45.9332 6.22109 42.4994 11.0794C39.0657 6.22109 34.0926 2.67571 28.3926 1.02249C16.4378 -2.41873 6.2097 3.53005 2.6498 10.866C-2.34468 21.1363 -0.272503 32.687 8.81321 45.1981C15.933 54.9883 26.1079 64.9118 40.8789 76.4359C41.3457 76.8015 41.9207 77 42.5127 77C43.1047 77 43.6797 76.8015 44.1465 76.4359C58.8909 64.9385 69.0924 55.095 76.2122 45.1981C85.2713 32.687 87.3435 21.1363 82.349 10.866V10.866Z" fill="#DD7474"/>
</svg>
