<svg width="48" height="42" viewBox="0 0 48 42" fill="none" xmlns="http://www.w3.org/2000/svg">
<path d="M45.6666 6.03557C43.7311 2.06335 38.1555 -1.18665 31.67 0.705569C28.5709 1.60075 25.8669 3.52048 24 6.15112C22.133 3.52048 19.4291 1.60075 16.33 0.705569C9.82997 -1.15776 4.26886 2.06335 2.3333 6.03557C-0.382251 11.5967 0.744416 17.8511 5.68442 24.6256C9.55553 29.9267 15.0877 35.3 23.1189 41.54C23.3727 41.738 23.6853 41.8455 24.0072 41.8455C24.3291 41.8455 24.6417 41.738 24.8955 41.54C32.9122 35.3145 38.4589 29.9845 42.33 24.6256C47.2555 17.8511 48.3822 11.5967 45.6666 6.03557Z" fill="#717171" fill-opacity="0.37"/>
</svg>
