<svg width="34" height="30" viewBox="0 0 34 30" fill="none" xmlns="http://www.w3.org/2000/svg">
<path d="M33.1462 7.19507C32.9574 6.45638 32.6661 5.74778 32.2807 5.08994C31.9105 4.40561 31.4372 3.78237 30.8773 3.24212C30.0656 2.43313 29.1044 1.78965 28.0471 1.34751C25.9189 0.47409 23.5324 0.47409 21.4042 1.34751C20.4049 1.77049 19.4868 2.3641 18.691 3.10177L18.574 3.24212L17.0537 4.76248L15.5333 3.24212L15.4164 3.10177C14.6205 2.3641 13.7024 1.77049 12.7031 1.34751C10.5749 0.47409 8.1884 0.47409 6.06025 1.34751C5.00297 1.78965 4.04174 2.43313 3.23003 3.24212C2.11985 4.32235 1.33395 5.69159 0.961179 7.19507C0.762865 7.95857 0.668453 8.74534 0.680496 9.53409C0.680496 10.2756 0.774057 11.0147 0.961179 11.7328C1.15727 12.458 1.43999 13.1569 1.80323 13.8145C2.19552 14.4905 2.67526 15.1118 3.23003 15.6623L17.0537 29.486L30.8773 15.6623C31.4316 15.1173 31.9065 14.4928 32.2807 13.8145C33.0404 12.5166 33.4363 11.038 33.4268 9.53409C33.439 8.74534 33.3446 7.95856 33.1462 7.19507ZM30.8071 11.0077C30.527 12.0764 29.9703 13.0526 29.1932 13.8379L17.0069 26.0008L4.82057 13.8379C4.42346 13.438 4.07773 12.9901 3.7914 12.5047C3.52196 12.0244 3.30999 11.5141 3.15986 10.9843C3.04001 10.4545 2.97728 9.91348 2.97274 9.37036C2.97591 8.81171 3.03864 8.255 3.15986 7.70965C3.30559 7.17832 3.51777 6.66749 3.7914 6.18929C4.07208 5.69809 4.41826 5.25368 4.82057 4.85604C5.42145 4.2632 6.12737 3.7873 6.9023 3.45263C8.46386 2.82793 10.2059 2.82793 11.7675 3.45263C12.5393 3.77307 13.2364 4.24322 13.8258 4.83265L17.0069 8.03712L20.188 4.83265C20.777 4.24217 21.4764 3.77327 22.2463 3.45263C23.8079 2.82793 25.5499 2.82793 27.1115 3.45263C27.8857 3.78711 28.5921 4.26427 29.1932 4.85604C29.6002 5.24198 29.9417 5.69107 30.199 6.18929C30.7408 7.14469 31.023 8.22527 31.0176 9.32358C31.0495 9.88874 31.0022 10.4556 30.8773 11.0077H30.8071Z" fill="#F96D6D"/>
</svg>
