<svg width="40" height="40" viewBox="0 0 40 40" fill="none" xmlns="http://www.w3.org/2000/svg">
<path d="M40 35C40 36.3261 39.4732 37.5979 38.5355 38.5355C37.5979 39.4732 36.3261 40 35 40H5C3.67392 40 2.40215 39.4732 1.46447 38.5355C0.526784 37.5979 0 36.3261 0 35V5C0 3.67392 0.526784 2.40215 1.46447 1.46447C2.40215 0.526784 3.67392 0 5 0L35 0C36.3261 0 37.5979 0.526784 38.5355 1.46447C39.4732 2.40215 40 3.67392 40 5V35ZM28.75 18.75H14.2675L19.635 13.385C19.8697 13.1503 20.0016 12.8319 20.0016 12.5C20.0016 12.1681 19.8697 11.8497 19.635 11.615C19.4003 11.3803 19.0819 11.2484 18.75 11.2484C18.4181 11.2484 18.0997 11.3803 17.865 11.615L10.365 19.115C10.2486 19.2311 10.1562 19.3691 10.0932 19.5209C10.0302 19.6728 9.99777 19.8356 9.99777 20C9.99777 20.1644 10.0302 20.3272 10.0932 20.4791C10.1562 20.6309 10.2486 20.7689 10.365 20.885L17.865 28.385C18.0997 28.6197 18.4181 28.7516 18.75 28.7516C19.0819 28.7516 19.4003 28.6197 19.635 28.385C19.8697 28.1503 20.0016 27.8319 20.0016 27.5C20.0016 27.1681 19.8697 26.8497 19.635 26.615L14.2675 21.25H28.75C29.0815 21.25 29.3995 21.1183 29.6339 20.8839C29.8683 20.6495 30 20.3315 30 20C30 19.6685 29.8683 19.3505 29.6339 19.1161C29.3995 18.8817 29.0815 18.75 28.75 18.75Z" fill="#9D9D9D"/>
</svg>
