<svg width="61" height="60" viewBox="0 0 61 60" fill="none" xmlns="http://www.w3.org/2000/svg">
<g clip-path="url(#clip0_2:179)">
<path d="M60.8593 52.5C60.8593 54.4891 60.0706 56.3968 58.6668 57.8033C57.2629 59.2098 55.3589 60 53.3736 60H8.45913C6.47379 60 4.56976 59.2098 3.16591 57.8033C1.76206 56.3968 0.973389 54.4891 0.973389 52.5V7.5C0.973389 5.51088 1.76206 3.60322 3.16591 2.1967C4.56976 0.790176 6.47379 0 8.45913 0L53.3736 0C55.3589 0 57.2629 0.790176 58.6668 2.1967C60.0706 3.60322 60.8593 5.51088 60.8593 7.5V52.5ZM44.0164 28.125H22.334L30.3699 20.0775C30.7213 19.7254 30.9187 19.2479 30.9187 18.75C30.9187 18.2521 30.7213 17.7746 30.3699 17.4225C30.0185 17.0704 29.5419 16.8726 29.0449 16.8726C28.548 16.8726 28.0713 17.0704 27.7199 17.4225L16.4913 28.6725C16.3171 28.8467 16.1788 29.0536 16.0844 29.2814C15.9901 29.5092 15.9415 29.7534 15.9415 30C15.9415 30.2466 15.9901 30.4908 16.0844 30.7186C16.1788 30.9464 16.3171 31.1533 16.4913 31.3275L27.7199 42.5775C28.0713 42.9296 28.548 43.1274 29.0449 43.1274C29.5419 43.1274 30.0185 42.9296 30.3699 42.5775C30.7213 42.2254 30.9187 41.7479 30.9187 41.25C30.9187 40.7521 30.7213 40.2746 30.3699 39.9225L22.334 31.875H44.0164C44.5127 31.875 44.9887 31.6775 45.3397 31.3258C45.6907 30.9742 45.8878 30.4973 45.8878 30C45.8878 29.5027 45.6907 29.0258 45.3397 28.6742C44.9887 28.3225 44.5127 28.125 44.0164 28.125Z" fill="#3DAB55" fill-opacity="0.75"/>
</g>
<defs>
<clipPath id="clip0_2:179">
<rect width="59.8859" height="60" fill="white" transform="translate(0.973389)"/>
</clipPath>
</defs>
</svg>
