<svg width="101" height="101" viewBox="0 0 101 101" fill="none" xmlns="http://www.w3.org/2000/svg">
<g clip-path="url(#clip0_1:3)">
<path d="M76.6654 30.3465C78.6643 31.5547 79.3009 34.1367 78.0927 36.1356L50.9878 80.98C49.7796 82.9789 47.1976 83.6155 45.1987 82.4073L24.7528 70.0494C22.7539 68.8412 22.1173 66.2592 23.3255 64.2603L50.4304 19.4159C51.6386 17.417 54.2206 16.7804 56.2195 17.9886L76.6654 30.3465ZM66.6197 28.8664L62.1994 26.1947C62.0781 26.1214 61.9216 26.16 61.8483 26.2813L61.6907 26.542C61.6174 26.6633 61.656 26.8198 61.7773 26.8931L66.1975 29.5648C66.3188 29.6381 66.4753 29.5995 66.5486 29.4783L66.7062 29.2175C66.7795 29.0962 66.7409 28.9397 66.6197 28.8664ZM73.2869 38.5506L50.5257 24.7932L28.1311 61.8445L50.8923 75.6018L73.2869 38.5506ZM38.5666 70.2871C37.336 69.5433 35.7354 69.9379 34.9916 71.1685C34.2478 72.3991 34.6424 73.9997 35.873 74.7435C37.1036 75.4873 38.7042 75.0927 39.448 73.8621C40.1919 72.6315 39.7972 71.0309 38.5666 70.2871Z" fill="#40B359"/>
</g>
<defs>
<clipPath id="clip0_1:3">
<rect width="72.6861" height="72.6861" fill="white" transform="matrix(-0.855819 -0.517276 -0.517276 0.855819 100.612 37.8934)"/>
</clipPath>
</defs>
</svg>
