<svg width="80" height="80" viewBox="0 0 80 80" fill="none" xmlns="http://www.w3.org/2000/svg">
<path fill-rule="evenodd" clip-rule="evenodd" d="M6.66663 20C6.66663 18.2319 7.369 16.5362 8.61925 15.2859C9.86949 14.0357 11.5652 13.3333 13.3333 13.3333H66.6666C68.4347 13.3333 70.1304 14.0357 71.3807 15.2859C72.6309 16.5362 73.3333 18.2319 73.3333 20C73.3333 21.7681 72.6309 23.4638 71.3807 24.714C70.1304 25.9643 68.4347 26.6666 66.6666 26.6666H13.3333C11.5652 26.6666 9.86949 25.9643 8.61925 24.714C7.369 23.4638 6.66663 21.7681 6.66663 20ZM6.66663 40C6.66663 38.2319 7.369 36.5362 8.61925 35.2859C9.86949 34.0357 11.5652 33.3333 13.3333 33.3333H66.6666C68.4347 33.3333 70.1304 34.0357 71.3807 35.2859C72.6309 36.5362 73.3333 38.2319 73.3333 40C73.3333 41.7681 72.6309 43.4638 71.3807 44.714C70.1304 45.9643 68.4347 46.6666 66.6666 46.6666H13.3333C11.5652 46.6666 9.86949 45.9643 8.61925 44.714C7.369 43.4638 6.66663 41.7681 6.66663 40ZM6.66663 60C6.66663 58.2319 7.369 56.5362 8.61925 55.2859C9.86949 54.0357 11.5652 53.3333 13.3333 53.3333H66.6666C68.4347 53.3333 70.1304 54.0357 71.3807 55.2859C72.6309 56.5362 73.3333 58.2319 73.3333 60C73.3333 61.7681 72.6309 63.4638 71.3807 64.714C70.1304 65.9643 68.4347 66.6666 66.6666 66.6666H13.3333C11.5652 66.6666 9.86949 65.9643 8.61925 64.714C7.369 63.4638 6.66663 61.7681 6.66663 60Z" fill="black" fill-opacity="0.61"/>
</svg>
