<svg width="117" height="117" viewBox="0 0 117 117" fill="none" xmlns="http://www.w3.org/2000/svg">
<path d="M111.75 0H4.65625C2.08076 0 0 2.08076 0 4.65625V111.75C0 114.325 2.08076 116.406 4.65625 116.406H111.75C114.325 116.406 116.406 114.325 116.406 111.75V4.65625C116.406 2.08076 114.325 0 111.75 0ZM86.1406 61.6953C86.1406 62.3355 85.6168 62.8594 84.9766 62.8594H31.4297C30.7895 62.8594 30.2656 62.3355 30.2656 61.6953V54.7109C30.2656 54.0707 30.7895 53.5469 31.4297 53.5469H84.9766C85.6168 53.5469 86.1406 54.0707 86.1406 54.7109V61.6953Z" fill="black"/>
</svg>
