<svg width="86" height="86" viewBox="0 0 86 86" fill="none" xmlns="http://www.w3.org/2000/svg">
<path d="M10.75 0C7.89892 0 5.16462 1.13259 3.1486 3.1486C1.13259 5.16462 0 7.89892 0 10.75L0 75.25C0 78.1011 1.13259 80.8354 3.1486 82.8514C5.16462 84.8674 7.89892 86 10.75 86H75.25C78.1011 86 80.8354 84.8674 82.8514 82.8514C84.8674 80.8354 86 78.1011 86 75.25V10.75C86 7.89892 84.8674 5.16462 82.8514 3.1486C80.8354 1.13259 78.1011 0 75.25 0L10.75 0ZM45.6875 24.1875V40.3125H61.8125C62.5253 40.3125 63.2088 40.5956 63.7129 41.0997C64.2169 41.6037 64.5 42.2872 64.5 43C64.5 43.7128 64.2169 44.3963 63.7129 44.9004C63.2088 45.4044 62.5253 45.6875 61.8125 45.6875H45.6875V61.8125C45.6875 62.5253 45.4044 63.2088 44.9004 63.7129C44.3963 64.2169 43.7128 64.5 43 64.5C42.2872 64.5 41.6037 64.2169 41.0997 63.7129C40.5956 63.2088 40.3125 62.5253 40.3125 61.8125V45.6875H24.1875C23.4747 45.6875 22.7912 45.4044 22.2872 44.9004C21.7831 44.3963 21.5 43.7128 21.5 43C21.5 42.2872 21.7831 41.6037 22.2872 41.0997C22.7912 40.5956 23.4747 40.3125 24.1875 40.3125H40.3125V24.1875C40.3125 23.4747 40.5956 22.7912 41.0997 22.2872C41.6037 21.7831 42.2872 21.5 43 21.5C43.7128 21.5 44.3963 21.7831 44.9004 22.2872C45.4044 22.7912 45.6875 23.4747 45.6875 24.1875V24.1875Z" fill="black"/>
</svg>
