<svg width="61" height="60" viewBox="0 0 61 60" fill="none" xmlns="http://www.w3.org/2000/svg">
<g clip-path="url(#clip0_2:176)">
<path d="M0.133057 52.5C0.133057 54.4891 0.921731 56.3968 2.32558 57.8033C3.72943 59.2098 5.63346 60 7.6188 60H52.5332C54.5186 60 56.4226 59.2098 57.8265 57.8033C59.2303 56.3968 60.019 54.4891 60.019 52.5V7.5C60.019 5.51088 59.2303 3.60322 57.8265 2.1967C56.4226 0.790176 54.5186 0 52.5332 0L7.6188 0C5.63346 0 3.72943 0.790176 2.32558 2.1967C0.921731 3.60322 0.133057 5.51088 0.133057 7.5L0.133057 52.5ZM16.976 28.125H38.6584L30.6225 20.0775C30.2711 19.7254 30.0737 19.2479 30.0737 18.75C30.0737 18.2521 30.2711 17.7746 30.6225 17.4225C30.9739 17.0704 31.4505 16.8726 31.9475 16.8726C32.4444 16.8726 32.921 17.0704 33.2724 17.4225L44.501 28.6725C44.6753 28.8467 44.8136 29.0536 44.9079 29.2814C45.0023 29.5092 45.0508 29.7534 45.0508 30C45.0508 30.2466 45.0023 30.4908 44.9079 30.7186C44.8136 30.9464 44.6753 31.1533 44.501 31.3275L33.2724 42.5775C32.921 42.9296 32.4444 43.1274 31.9475 43.1274C31.4505 43.1274 30.9739 42.9296 30.6225 42.5775C30.2711 42.2254 30.0737 41.7479 30.0737 41.25C30.0737 40.7521 30.2711 40.2746 30.6225 39.9225L38.6584 31.875H16.976C16.4796 31.875 16.0036 31.6775 15.6527 31.3258C15.3017 30.9742 15.1045 30.4973 15.1045 30C15.1045 29.5027 15.3017 29.0258 15.6527 28.6742C16.0036 28.3225 16.4796 28.125 16.976 28.125Z" fill="#3DAB55" fill-opacity="0.75"/>
</g>
<defs>
<clipPath id="clip0_2:176">
<rect width="59.8859" height="60" fill="white" transform="translate(0.133057)"/>
</clipPath>
</defs>
</svg>
