<svg width="30" height="29" viewBox="0 0 30 29" fill="none" xmlns="http://www.w3.org/2000/svg">
<path d="M13.0455 24.3099C15.7409 24.3094 18.3587 23.407 20.482 21.7465L27.1578 28.4223L29.3051 26.275L22.6293 19.5992C24.2907 17.4757 25.1936 14.8573 25.1942 12.1612C25.1942 5.46263 19.744 0.0123901 13.0455 0.0123901C6.34694 0.0123901 0.896698 5.46263 0.896698 12.1612C0.896698 18.8597 6.34694 24.3099 13.0455 24.3099ZM13.0455 3.04958C18.0705 3.04958 22.157 7.13612 22.157 12.1612C22.157 17.1862 18.0705 21.2727 13.0455 21.2727C8.02043 21.2727 3.93389 17.1862 3.93389 12.1612C3.93389 7.13612 8.02043 3.04958 13.0455 3.04958Z" fill="black" fill-opacity="0.39"/>
</svg>
