<svg width="148" height="189" viewBox="0 0 148 189" fill="none" xmlns="http://www.w3.org/2000/svg">
<path d="M140.309 29.567C146.361 32.2734 149.055 39.3243 146.348 45.3761L85.633 181.143C82.9267 187.195 75.8758 189.888 69.824 187.181L7.92384 159.5C1.87206 156.793 -0.821205 149.742 1.88516 143.691L62.6003 7.92387C65.3067 1.87209 72.3576 -0.821197 78.4093 1.88517L140.309 29.567ZM111.497 28.9L98.1144 22.9154C97.7472 22.7512 97.3198 22.9145 97.1556 23.2816L96.8025 24.0711C96.6383 24.4383 96.8016 24.8657 97.1687 25.0299L110.551 31.0145C110.918 31.1787 111.346 31.0154 111.51 30.6483L111.863 29.8588C112.027 29.4916 111.864 29.0642 111.497 28.9ZM133.653 53.8541L64.7433 23.0376L14.5794 135.21L83.4892 166.027L133.653 53.8541ZM46.9173 155.353C43.1916 153.687 38.8207 155.357 37.1546 159.083C35.4884 162.808 37.158 167.179 40.8837 168.845C44.6094 170.511 48.9804 168.842 50.6465 165.116C52.3127 161.39 50.643 157.02 46.9173 155.353Z" fill="#595959"/>
</svg>
