<svg width="81" height="56" viewBox="0 0 81 56" fill="none" xmlns="http://www.w3.org/2000/svg">
<path d="M76.125 0.537933H4.87502C3.82521 0.537933 2.81839 0.949625 2.07606 1.68244C1.33372 2.41525 0.916687 3.40916 0.916687 4.44552V20.0759H4.45148C8.39398 20.0759 12.0515 22.7369 12.6848 26.5781C12.8778 27.6997 12.8204 28.8494 12.5168 29.9469C12.2133 31.0444 11.6707 32.0633 10.9271 32.9324C10.1835 33.8016 9.25666 34.5001 8.21137 34.9791C7.16608 35.4582 6.02748 35.7063 4.87502 35.7062H0.916687V51.3366C0.916687 52.3729 1.33372 53.3668 2.07606 54.0996C2.81839 54.8325 3.82521 55.2441 4.87502 55.2441H76.125C77.1748 55.2441 78.1817 54.8325 78.924 54.0996C79.6663 53.3668 80.0834 52.3729 80.0834 51.3366V35.7062H76.125C74.9726 35.7063 73.834 35.4582 72.7887 34.9791C71.7434 34.5001 70.8166 33.8016 70.073 32.9324C69.3293 32.0633 68.7868 31.0444 68.4832 29.9469C68.1796 28.8494 68.1223 27.6997 68.3152 26.5781C68.9486 22.7369 72.6061 20.0759 76.5486 20.0759H80.0834V4.44552C80.0834 3.40916 79.6663 2.41525 78.924 1.68244C78.1817 0.949625 77.1748 0.537933 76.125 0.537933ZM28.625 16.1683C29.6748 16.1683 30.6817 16.58 31.424 17.3128C32.1663 18.0456 32.5834 19.0395 32.5834 20.0759C32.5834 21.1122 32.1663 22.1061 31.424 22.8389C30.6817 23.5718 29.6748 23.9835 28.625 23.9835C27.5752 23.9835 26.5684 23.5718 25.8261 22.8389C25.0837 22.1061 24.6667 21.1122 24.6667 20.0759C24.6667 19.0395 25.0837 18.0456 25.8261 17.3128C26.5684 16.58 27.5752 16.1683 28.625 16.1683ZM25.4584 41.1768L49.2084 9.91614L55.5417 14.6052L31.7917 45.8659L25.4584 41.1768ZM52.375 39.6138C51.3252 39.6138 50.3184 39.2021 49.5761 38.4693C48.8337 37.7365 48.4167 36.7426 48.4167 35.7062C48.4167 34.6699 48.8337 33.6759 49.5761 32.9431C50.3184 32.2103 51.3252 31.7986 52.375 31.7986C53.4248 31.7986 54.4317 32.2103 55.174 32.9431C55.9163 33.6759 56.3334 34.6699 56.3334 35.7062C56.3334 36.7426 55.9163 37.7365 55.174 38.4693C54.4317 39.2021 53.4248 39.6138 52.375 39.6138Z" fill="#BFF1CA"/>
</svg>
