<svg id="svg" xmlns="http://www.w3.org/2000/svg" viewBox="0 0 400 70.8"><style>.st0{fill:#898989}</style><g id="svgg"><path id="path0" d="M0 8.2v8.2h70.8v18.8c0 17.6 0 18.8-.7 18.8H24.4c-.5 0-.6-1.7-.5-13.3.1-10.4 0-13.3-.4-13.6-.3-.2-5.7-.3-12-.3H0v44h38.6c37.8 0 38.6 0 39.5-.8.5-.4 1-.7 1.1-.6.2.1.4-.2.5-.7.1-.6.4-.7.7-.5.3.2.4.2.2 0-.3-.4 6.6-7.4 7.3-7.4.3 0 .4-.1.3-.3-.1-.2 1.1-1.7 2.8-3.3l3-3V35.4c0-20.4 0-20.5-1.5-20.9-.6-.2-.9-.4-.8-.8.1-.3 0-.5-.2-.3-.2.1-.4.1-.4-.2s-.3-.4-.6-.4c-.5 0-1.2-1.1-1.1-1.7 0-.2-.1-.2-.3-.1-.2.1-2.9-2.3-6-5.4L77.6 0H0v8.2M105.6 8c0 6.4.1 8.1.6 8.6 1 1 92.3.8 93.3-.1.7-.6.3-1.1-7.3-8.6l-8-7.9h-78.6v8M200.4.2c0 .1 7.8 8 17.4 17.5 9.6 9.5 17.3 17.5 17.3 17.7-.4 1.1-15.3 15.4-15.6 14.9-.2-.3-.3-.3-.1.2.1.4-2.7 3.5-9.1 9.9-5.1 5.1-9.4 9.5-9.6 9.9-.2.5 1.3.6 11.3.6h11.5L241.2 53 259 35.2l-1.1-1c-.6-.6-1-1.2-.8-1.4.2-.3.1-.4-.1-.2-.5.3-7.8-6.9-7.4-7.5.1-.2.1-.3-.2-.1-.6.4-21.8-20.8-21.5-21.4.2-.3.1-.4-.2-.2-.2.1-1.3-.5-2.3-1.5L223.5 0H212c-6.4 0-11.6.1-11.6.2M269 1.8c-1 1-2 1.7-2.3 1.5-.3-.2-.3-.1-.2.2.4.6-2.1 3-2.6 2.6-.3-.2-.3-.1-.2.2.3.6-1.2 2.2-1.8 1.9-.2-.1-.3 0-.3.3.1.3-.1.5-.4.4-.2-.1-.4.1-.2.3.1.2-1.2 1.8-3 3.6l-3.2 3.2.9 1.4c.5.8 1.1 1.4 1.3 1.4.5 0 3.4 3.1 3.5 3.7 0 .3.6.7 1.2.9.6.3 1.2.9 1.3 1.5.2.6.5 1 1 1 .4 0 1 .4 1.3.8.3.4.7.8.9.8.4 0 27.8-27 27.8-27.4 0-.1-5.2-.2-11.6-.2h-11.6L269 1.8m37.1 33.5l.1 35.3 11.5.1 11.5.1.1-27.1.1-27.1 23.5-.1c21.4-.1 23.5 0 23.3.5-.1.4-.2 5-.2 10.4v9.8h-35.6V54h21.7c21.4 0 21.8 0 22.5-.8.4-.4 1-.7 1.3-.6.3.1.4 0 .3-.2-.3-.6 2.1-2.9 2.7-2.5.3.2.3.1.2-.2-.2-.3 1.8-2.5 5.3-6.1L400 38V16.3l-8.2-8.1-8.2-8.2H306l.1 35.3M105.5 48.4c.1 15.2 0 21.6-.3 21.6-.2 0-.3.2-.2.4.2.3 13.8.4 39.6.4H184l7.8-7.8c7.3-7.3 8.4-8.6 7.4-9.2-.2-.1-15.9-.2-34.8-.2H130V44h23.2c20.4 0 23.2-.1 23.2-.6 0-.3.2-.6.4-.6.6 0 .5-14.9-.1-15.5-.4-.4-8.9-.5-35.9-.5h-35.4l.1 21.6M264.8 44c-.8.4-1.3.8-1.1.8.2 0 0 .5-.3 1-.4.5-1 1-1.4 1-.4 0-.9.2-1 .5-.2.3-.1.4.2.1.3-.2.2.1-.2.7s-1 1-1.3.9c-.3-.1-.4 0-.3.2.1.2.1.4-.2.4s-.4.2-.4.5-.5.9-1.2 1.3-1.2.9-1.2 1c0 .1-.4.7-.8 1.2l-.8.9 8.1 8.1 8.1 8.1h11.3c9 0 11.3-.1 11.3-.5 0-.6-26.5-27.1-27-27-.2.1-1 .4-1.8.8"/><path id="path1" class="st0" d="M84 6.4c3.6 3.6 6.6 6.4 6.6 6.4 0-.1-.2-.6-.4-1.1-.3-.6-.5-.8-.5-.7 0 .2-2.5-2.2-5.6-5.2C81 2.8 78.3.2 78 .1c-.4-.1 2.4 2.7 6 6.3m20.8 2.2c0 8.3 0 8.6.8 8.6.4 0 .8-.2.8-.4s-.2-.4-.4-.4c-.3 0-.4-3-.4-8.2s-.1-8.2-.4-8.2c-.3 0-.4 3.1-.4 8.6m87.3-.7c4.3 4.3 8 7.8 8.1 7.6.3-.3-15-15.5-15.6-15.5-.2 0 3.2 3.5 7.5 7.9m7.5-7.7c0 .1 7.9 8 17.4 17.6 15.6 15.5 17.4 17.5 16.9 18.1-.5.6-21.2 21.2-22.6 22.6-2.2 2-11.7 11.8-11.7 12.1 0 .5.8.3 1-.3.1-.3 6.4-6.8 14-14.3 7.6-7.5 15.3-15.2 17.2-17.1 1.9-1.8 3.4-3.5 3.4-3.6 0-.3-35.1-35.2-35.4-35.2-.1-.1-.2 0-.2.1m41.7 17.4L259 35.2l-17.7 17.7c-9.7 9.7-17.6 17.7-17.5 17.9.2.2 10.6-9.9 12.5-12.1l1.4-1.4 1.4-1.4 1.4-1.4 1.4-1.4c.8-.9 1.3-1.5 2.3-2.3.4-.4 1.7-1.6 2.8-2.8 1.1-1.2 4.3-4.4 7.1-7.1 2.8-2.7 5-5.2 5-5.5.1-.7-34.5-35.4-35.1-35.4-.3 0 7.5 7.9 17.3 17.6m20.9-9.8c-7.8 7.7-8.5 8.7-7.2 9.8.9.8 1.2.1.4-.8-.7-.8-.5-1 7.3-8.8 4.4-4.4 7.9-8 7.7-8s-3.9 3.5-8.2 7.8m18.2 6c-7.6 7.6-13.9 13.8-14.1 13.8s-.3.2-.3.4.2.4.4.4c.4 0 28.4-27.8 28.4-28.2 0-.6-1.9 1.2-14.4 13.6m24.8 21.6c0 28.1.1 35.4.5 35.4s.5-7.3.4-35.4c-.1-23-.2-35.4-.5-35.4s-.4 12.3-.4 35.4M384 .2c0 .2 14.2 14.4 15.4 15.4.3.3.6.4.6.2 0-.3-15.4-15.8-15.8-15.8-.1 0-.2.1-.2.2M91.5 13.8c.1.3.5.6.8.6.8 0 .7-.3-.2-.8-.7-.3-.8-.3-.6.2m2.4 21.1l.1 19.3-3.1 3.1c-1.7 1.7-3 3.1-2.8 3.1.2 0 1.7-1.4 3.5-3.2l3.2-3.2V34.8c0-15.1-.1-19.2-.5-19.2s-.5 4.1-.4 19.3m105.5-18.5c-.1.2-.2.5-.1.6.3.3 1.1-.2 1.1-.7 0-.4-.7-.4-1 .1M0 16.8c0 .3 11.9.4 35 .4h35v36.4H46.7c-12.8 0-23.2.1-23 .2.2.2 16.9.2 46.4.2.7 0 .7-1.2.7-18.8V16.4H35.4c-23.3 0-35.4.1-35.4.4m329.5-.1c-.5.5-.3 54.1.1 54.1.3 0 .4-9.2.4-26.8V17.2h23.2c15.2 0 23.2-.1 23.2-.4 0-.5-46.5-.6-46.9-.1m-71.1 4.1c1.1 1.1 2.1 2 2.2 1.9.3-.3-3.2-3.9-3.8-3.9-.2 0 .5.9 1.6 2m3.2 3.2c0 .2.4.6.8.8.8.4.8.4.4-.4s-1.2-1.1-1.2-.4M106 26.4c0 .3 12 .4 35.1.4 26.8 0 35.2.1 35.6.5.3.3.5.3.5.1 0-1.3-.6-1.4-36.1-1.4-23.1 0-35.1.1-35.1.4m158.4.4c.4.8 1.2 1.1 1.2.5 0-.4-.9-1.3-1.3-1.3-.2 0-.1.4.1.8M104.8 48.6c0 14 .1 21.4.4 21.4.3 0 .4-7.4.4-21.4s-.1-21.4-.4-21.4c-.3 0-.4 7.4-.4 21.4m234.8-2.8v8.6h44.8l7.8-7.8c4.3-4.3 7.8-8 7.8-8.2 0-.2-3.6 3.2-8 7.6l-8 8h-43.6v-8.4c0-5.3-.1-8.4-.4-8.4s-.4 3.1-.4 8.6m-74-3.1c-.6.2-1.2.9-1.2 1.5 0 .2.4.1 1-.3.5-.4 1.1-.6 1.3-.6.5 0 26.9 26.6 26.9 27.1 0 .3.3.5.6.5s.6-.1.6-.3c0-.4-27.8-28.1-28.2-28.1-.2-.1-.7.1-1 .2m-89.2.7c0 .3.2.6.4.6s.4-.3.4-.6-.2-.6-.4-.6-.4.3-.4.6m86.1 2.2c-1 .9-1.1 1.2-.3 1.2.3 0 .8-.5 1.2-1 .8-1.2.3-1.3-.9-.2m-3.3 3.5c-2 1.9-2.7 2.9-1.2 2 .4-.3.8-.7.8-1 0-.3.3-.6.7-.7.7-.2 2.4-2.2 1.9-2.2-.1 0-1.1.8-2.2 1.9m-3.9 3.7c-.5.4-.9 1.1-.9 1.5 0 .7 15.8 16.8 16.2 16.4.1-.1-3.4-3.8-7.8-8.2l-8-8 .8-.9c1.3-1.5 1.1-2.1-.3-.8m-55.9 1.7c0 .6.2.9.5.8.3-.1.5-.5.5-.9s-.2-.8-.5-.8-.5.4-.5.9m-7.9 8.8c-3.9 4-7 7.3-6.9 7.4.2.2 14.7-14 14.7-14.5-.1-.6-1.3.5-7.8 7.1M83.4 64.8c-2.2 2.2-3.9 4.1-3.8 4.1.1.1 2-1.7 4.3-4s4-4.1 3.8-4.1c-.1 0-2.1 1.8-4.3 4m-5.1 5c-.8.6-.9 1-.3 1 .2 0 .6-.4.8-.8.5-.9.4-1-.5-.2m47 1.3c10.7.1 28.3.1 39.2 0 10.8-.1 2.1-.1-19.5-.1s-30.4 0-19.7.1"/></g></svg>